<svg width="24" height="24" viewBox="0 0 24 24" fill="none" xmlns="http://www.w3.org/2000/svg">
<path d="M12.5 2C14.2632 2 15.7212 3.3039 15.9639 5H19C19.5523 5 20 5.44772 20 6V21C20 21.5523 19.5523 22 19 22H5L4.89746 21.9951C4.42703 21.9472 4.05278 21.573 4.00488 21.1025L4 21V6C4 5.48232 4.39333 5.05621 4.89746 5.00488L5 5H8.03613C8.27879 3.3039 9.7368 2 11.5 2H12.5ZM5.5 20.5H18.5V6.5H16V9H14.5V6.5H9.5V9H8V6.5H5.5V20.5ZM11.5 3.5C10.5683 3.5 9.78765 4.13768 9.56543 5H14.4346C14.2123 4.13768 13.4317 3.5 12.5 3.5H11.5Z" fill="black"/>
</svg>
