<svg width="48" height="48" viewBox="0 0 48 48" fill="none" xmlns="http://www.w3.org/2000/svg">
<g clip-path="url(#clip0_904_549)">
<path d="M26.1144 10.9998C26.786 10.9998 27.4232 11.2141 27.9875 11.4812C28.5527 11.7487 29.1046 12.0988 29.5988 12.4187C30.112 12.7509 30.5573 13.0451 30.9758 13.2634C31.4003 13.4849 31.6945 13.5708 31.8976 13.571C32.0345 13.571 32.2821 13.5226 32.6457 13.3865C32.9943 13.256 33.3917 13.0673 33.8097 12.8445C34.6455 12.3991 35.5063 11.846 36.1252 11.4275C36.9713 10.8555 38.1356 11.0079 38.7873 11.8376L42.5763 16.6628C43.1584 17.404 43.1391 18.4595 42.5304 19.1785L37.2677 25.3904L38.6408 26.5056L38.675 26.5359L38.7082 26.5681L38.1164 27.1667L38.7092 26.5691L38.7101 26.571L38.7209 26.5818L38.8029 26.6716C38.8502 26.7271 38.9107 26.805 38.9777 26.9011C39.1102 27.0912 39.2764 27.3725 39.3888 27.7234C39.6294 28.475 39.5948 29.4735 38.7316 30.4216C38.3203 30.8733 37.8654 31.1537 37.3879 31.2751C37.2076 31.3209 37.032 31.341 36.8654 31.3435C36.8515 31.4222 36.8354 31.5041 36.8166 31.5876C36.6933 32.133 36.3978 33.0264 35.6144 33.4841C35.2703 33.6852 34.9202 33.8447 34.6095 33.9675C34.0233 34.1991 33.4242 34.1777 32.8888 33.991C32.7513 34.2898 32.5688 34.6292 32.3215 34.9675C31.909 35.5316 31.265 35.7185 30.7951 35.783C29.802 35.919 28.9174 35.55 28.1974 35.0642C27.9835 35.4525 27.6897 35.9121 27.3097 36.2966C26.5747 37.0404 25.638 37.1067 24.842 36.8953C24.0698 36.6902 23.3461 36.2129 22.7961 35.7087L20.6799 33.7683L19.9504 34.531L19.757 34.7146C18.7535 35.57 17.2528 35.5333 16.2902 34.5896L16.1086 34.3933C15.9294 34.1779 15.7924 33.9389 15.6926 33.6882C14.7181 34.2505 13.4568 34.1232 12.6105 33.2937L12.4289 33.0974C12.2234 32.8505 12.071 32.5733 11.9699 32.282C11.0599 32.6322 9.99262 32.4484 9.24724 31.7175L9.06657 31.5212C8.3867 30.7042 8.27776 29.5622 8.74626 28.6394C8.40582 28.5177 8.0841 28.3243 7.80779 28.0535L7.62712 27.8572C6.78193 26.8416 6.81755 25.3226 7.75017 24.3484L8.98943 23.0525L5.64177 19.9832C4.82742 19.2364 4.78166 17.9558 5.54118 17.1521L10.0588 12.3738C10.7088 11.686 11.7266 11.578 12.506 12.0291C13.4224 12.5595 14.8365 13.289 15.8801 13.4753C16.4108 13.5699 16.8849 13.3043 17.7287 12.7205C18.474 12.2047 19.5128 11.4376 20.8693 11.4373C21.7061 11.4373 22.4198 11.657 22.9943 11.9509C23.1111 12.0107 23.2072 12.0953 23.2814 12.1941C23.3115 12.1732 23.3412 12.1521 23.3713 12.1316C23.8148 11.829 24.2742 11.5531 24.7199 11.3513C25.1545 11.1546 25.6382 10.9998 26.1144 10.9998ZM20.8693 13.1306C20.1182 13.1309 19.5085 13.5407 18.673 14.1189C17.9359 14.629 16.896 15.3756 15.589 15.1423C14.2255 14.8988 12.582 14.0247 11.675 13.4998C11.5256 13.4134 11.3573 13.449 11.2677 13.5437L6.75114 18.323C6.64279 18.4378 6.64856 18.6216 6.76482 18.7283L10.1545 21.8347L10.5529 21.4197C11.5477 20.3805 13.1873 20.3543 14.214 21.3611L14.3947 21.5574C14.7594 21.9956 14.9589 22.5277 14.9943 23.0691C15.6514 23.0627 16.3113 23.3081 16.8205 23.8074L17.0011 24.0027C17.4904 24.5906 17.6816 25.3471 17.5773 26.0691C18.0485 26.1642 18.4996 26.3911 18.8703 26.7546L19.0509 26.9509C19.4662 27.4501 19.6675 28.0704 19.6554 28.6882C20.2309 28.7366 20.7943 28.9793 21.2414 29.4177L21.422 29.614C22.0954 30.4232 22.2073 31.5504 21.7541 32.4685L23.9191 34.4539C24.3418 34.8413 24.8343 35.1417 25.2668 35.2566C25.6754 35.3651 25.933 35.2938 26.1261 35.0984C26.4122 34.8089 26.6584 34.4087 26.84 34.0496C26.8595 34.0109 26.8763 33.9716 26.8937 33.9353L24.0119 31.0525C23.6833 30.7236 23.6801 30.1858 24.0051 29.8533C24.33 29.5209 24.8601 29.5196 25.1886 29.8484L28.4582 33.1208C29.2083 33.8101 29.9188 34.1926 30.5705 34.1033C30.7102 34.0841 30.8142 34.0538 30.8849 34.0212C30.9519 33.9903 30.9721 33.9657 30.9758 33.9607C31.2228 33.6228 31.3841 33.2767 31.4855 33.0095L26.5177 28.3337C26.1794 28.0153 26.1602 27.4789 26.4748 27.1365C26.7895 26.7944 27.3191 26.7752 27.6574 27.0935L33.0099 32.1306C33.3323 32.434 33.7133 32.5041 34.0011 32.3904C34.2553 32.2899 34.5255 32.1661 34.7785 32.0183C34.914 31.939 35.0793 31.6807 35.1857 31.2097C35.218 31.0668 35.2361 30.9278 35.2502 30.8074L30.5422 26.6335C30.5116 26.6132 30.4817 26.591 30.4533 26.5662L29.0363 25.3269C28.6867 25.0212 28.6475 24.4865 28.9494 24.1326C29.2458 23.7854 29.76 23.7418 30.1095 24.0291L30.1252 24.0115L36.1261 29.3201L36.1476 29.3386L36.1603 29.3523L36.1779 29.3689C36.1973 29.3858 36.2303 29.4123 36.2736 29.4431C36.3645 29.5077 36.4844 29.5751 36.6134 29.615C36.7375 29.6532 36.8586 29.6623 36.9797 29.6316C37.0974 29.6016 37.2778 29.5185 37.5011 29.2732C37.9076 28.8266 37.8739 28.4848 37.797 28.2449C37.7506 28.1 37.6765 27.9723 37.6105 27.8777C37.5816 27.8363 37.5565 27.8045 37.5392 27.7839L26.2062 18.5759L24.717 19.2244C24.0017 19.5357 23.1169 19.8333 22.258 19.8562C21.372 19.8796 20.4113 19.6044 19.7941 18.6609C19.248 17.8258 19.2448 16.9149 19.5177 16.1218C19.7824 15.3532 20.3083 14.6716 20.881 14.1482C21.1772 13.8775 21.5065 13.5882 21.8527 13.2976C21.5625 13.196 21.2347 13.1306 20.8693 13.1306ZM20.0763 30.6345C19.7133 30.2786 19.1341 30.2876 18.7824 30.655L17.4338 32.0632C17.0821 32.4306 17.0913 33.0178 17.4543 33.3738C17.8173 33.7295 18.3966 33.7196 18.7482 33.3523L20.0968 31.9441C20.4485 31.5767 20.4392 30.9905 20.0763 30.6345ZM17.7052 27.9705C17.3663 27.6384 16.8382 27.6239 16.4836 27.9226L13.6896 30.8416C13.405 31.2098 13.4354 31.7442 13.7746 32.0769C14.1375 32.4327 14.7168 32.4235 15.0685 32.0564L17.7258 29.281C18.0774 28.9136 18.0682 28.3264 17.7052 27.9705ZM15.6554 25.0232C15.2925 24.6676 14.7131 24.6766 14.3615 25.0437L10.3918 29.1912C10.0401 29.5585 10.0493 30.1448 10.4123 30.5007C10.7753 30.8566 11.3545 30.8476 11.7062 30.4802L12.4875 29.6638C12.5094 29.6392 12.5299 29.6126 12.5529 29.5886L15.2092 26.8132C15.2319 26.7895 15.257 26.7676 15.2804 26.7449L15.6759 26.3328C16.0276 25.9654 16.0184 25.3791 15.6554 25.0232ZM13.049 22.5779C12.686 22.2221 12.1067 22.2311 11.7551 22.5984L8.95134 25.5271C8.59996 25.8944 8.60915 26.4808 8.97185 26.8367C9.33484 27.1926 9.91508 27.1835 10.2668 26.8162L13.0695 23.8875C13.4212 23.5201 13.412 22.9338 13.049 22.5779ZM26.1144 12.6941C25.9759 12.6941 25.741 12.744 25.4025 12.8972C25.0748 13.0456 24.7042 13.2654 24.3078 13.5359C23.5148 14.0769 22.6868 14.7793 22.0021 15.405C21.5692 15.8007 21.2447 16.2556 21.0988 16.6794C20.9613 17.0789 20.9878 17.4177 21.1896 17.7263C21.3878 18.0291 21.6961 18.1765 22.214 18.1628C22.7593 18.1483 23.4142 17.948 24.0558 17.6687L25.8986 16.8669C25.9644 16.8268 26.0347 16.7965 26.1076 16.7761L27.0265 16.3767C27.451 16.192 27.9436 16.3905 28.1261 16.8201C28.2723 17.1648 28.1738 17.5522 27.9103 17.7878L35.9631 24.3298L41.2599 18.0769C41.3468 17.9743 41.3496 17.8234 41.2668 17.7175L37.4767 12.8914C37.3852 12.7751 37.2017 12.7365 37.0549 12.8357C36.4153 13.2682 35.5 13.8585 34.59 14.3435C34.1354 14.5858 33.6669 14.8102 33.2258 14.9753C32.7995 15.1349 32.3311 15.2654 31.8976 15.2654C31.2902 15.2652 30.7066 15.0294 30.2082 14.7693C29.7026 14.5055 29.1774 14.1561 28.6974 13.8455C28.1985 13.5225 27.7317 13.2299 27.2785 13.0154C26.8248 12.8007 26.4423 12.6942 26.1144 12.6941Z" fill="#1D1D1F"/>
</g>
<defs>
<clipPath id="clip0_904_549">
<rect width="48" height="48" fill="white"/>
</clipPath>
</defs>
</svg>
