<svg width="48" height="48" viewBox="0 0 48 48" fill="none" xmlns="http://www.w3.org/2000/svg">
<g clip-path="url(#clip0_903_471)">
<path d="M11.9531 37C14.939 37.0001 17.4182 39.1643 17.8945 42.0039C17.9858 42.5486 17.527 42.9999 16.9726 43H6.93353C6.37907 43 5.9203 42.5486 6.01165 42.0039C6.48797 39.1643 8.967 37 11.9531 37ZM36.0468 37C39.0329 37 41.5119 39.1643 41.9882 42.0039C42.0796 42.5486 41.6208 43 41.0663 43H31.0273C30.4729 42.9999 30.0141 42.5486 30.1054 42.0039C30.5817 39.1643 33.0609 37.0001 36.0468 37ZM11.9531 38.5C9.98687 38.5 8.3123 39.7525 7.69232 41.5H16.2138C15.5939 39.7525 13.9192 38.5001 11.9531 38.5ZM36.0468 38.5C34.0807 38.5001 32.406 39.7525 31.7861 41.5H40.3075C39.6876 39.7525 38.013 38.5 36.0468 38.5ZM11.9531 30C13.6164 30.0001 14.9648 31.3432 14.9648 33C14.9648 34.6568 13.6164 35.9999 11.9531 36C10.2897 36 8.94134 34.6569 8.94134 33C8.94134 31.3431 10.2897 30 11.9531 30ZM36.0468 30C37.7102 30 39.0585 31.3431 39.0585 33C39.0585 34.6569 37.7102 36 36.0468 36C34.3836 35.9998 33.0351 34.6567 33.0351 33C33.0351 31.3433 34.3836 30.0002 36.0468 30ZM11.9531 31.5C11.1214 31.5 10.4472 32.1716 10.4472 33C10.4472 33.8284 11.1214 34.5 11.9531 34.5C12.7847 34.4999 13.4589 33.8284 13.4589 33C13.4589 32.1716 12.7847 31.5001 11.9531 31.5ZM36.0468 31.5C35.2153 31.5002 34.5409 32.1717 34.5409 33C34.5409 33.8283 35.2153 34.4998 36.0468 34.5C36.8785 34.5 37.5527 33.8284 37.5527 33C37.5527 32.1716 36.8785 31.5 36.0468 31.5ZM24.0624 19.25C24.4783 19.25 24.8154 19.5858 24.8154 20V26.0664L30.5253 29.3506C30.8852 29.5578 31.0085 30.0164 30.8007 30.375C30.5928 30.7335 30.1324 30.8563 29.7724 30.6494L24.0624 27.3652L18.3534 30.6494C17.9933 30.8565 17.5321 30.7337 17.3242 30.375C17.1164 30.0163 17.2405 29.5577 17.6005 29.3506L23.3095 26.0664V20C23.3095 19.5859 23.6468 19.2502 24.0624 19.25ZM23.9999 12C26.986 12 29.465 14.1642 29.9413 17.0039C30.0327 17.5486 29.5739 18 29.0195 18H18.9804C18.426 18 17.9672 17.5486 18.0585 17.0039C18.5348 14.1642 21.0139 12 23.9999 12ZM23.9999 13.5C22.0337 13.5 20.3591 14.7524 19.7392 16.5H28.2607C27.6407 14.7524 25.9661 13.5 23.9999 13.5ZM23.9999 5C25.6633 5 27.0117 6.34315 27.0117 8C27.0117 9.65685 25.6633 11 23.9999 11C22.3366 10.9999 20.9882 9.65682 20.9882 8C20.9882 6.34318 22.3366 5.00006 23.9999 5ZM23.9999 6.5C23.1683 6.50006 22.4941 7.17161 22.4941 8C22.4941 8.82839 23.1683 9.49994 23.9999 9.5C24.8316 9.5 25.5058 8.82843 25.5058 8C25.5058 7.17157 24.8316 6.5 23.9999 6.5Z" fill="#1D1D1F"/>
</g>
<defs>
<clipPath id="clip0_903_471">
<rect width="48" height="48" fill="white"/>
</clipPath>
</defs>
</svg>
