<svg width="24" height="24" viewBox="0 0 24 24" fill="none" xmlns="http://www.w3.org/2000/svg">
<rect width="24" height="24" fill="white"/>
<path d="M21.75 19.5C21.75 20.1904 21.1904 20.75 20.5 20.75H3.5C2.80964 20.75 2.25 20.1904 2.25 19.5V15C2.25 14.5858 2.58579 14.25 3 14.25C3.41421 14.25 3.75 14.5858 3.75 15V19.25H20.25V15C20.25 14.5858 20.5858 14.25 21 14.25C21.4142 14.25 21.75 14.5858 21.75 15V19.5Z" fill="black"/>
<path d="M11.2499 4C11.2499 3.58579 11.5857 3.25 11.9999 3.25C12.4142 3.25 12.7499 3.58579 12.7499 4V14.1895L15.4697 11.4697C15.7626 11.1768 16.2373 11.1768 16.5302 11.4697C16.8231 11.7626 16.8231 12.2374 16.5302 12.5303L11.9999 17.0605L7.46967 12.5303C7.17678 12.2374 7.17678 11.7626 7.46967 11.4697C7.76256 11.1768 8.23732 11.1768 8.53022 11.4697L11.2499 14.1895V4Z" fill="black"/>
</svg>
