<svg width="24" height="24" viewBox="0 0 24 24" fill="none" xmlns="http://www.w3.org/2000/svg">
<path d="M11.9998 8.00003C15.8657 8.00015 18.9998 11.1341 18.9998 15C18.9997 18.8659 15.8656 21.9999 11.9998 22L11.6394 21.9912C7.94097 21.8037 4.99989 18.7451 4.99978 15C4.99978 11.134 8.13379 8.00003 11.9998 8.00003ZM9.82303 15.75C9.89651 17.2868 10.4121 18.9074 11.656 20.4883C11.7697 20.4953 11.8844 20.5 11.9998 20.5C12.1188 20.5 12.2371 20.4948 12.3543 20.4873C13.6561 18.8704 14.2137 17.2565 14.3201 15.75H9.82303ZM6.55252 15.75C6.79819 17.5506 7.91406 19.0729 9.46366 19.8799C8.71598 18.4986 8.37559 17.099 8.32107 15.75H6.55252ZM15.825 15.75C15.7465 17.0797 15.3752 18.4648 14.5965 19.8487C16.1147 19.0338 17.2046 17.5272 17.4471 15.75H15.825ZM9.72147 9.9932C8.0384 10.7603 6.81157 12.3508 6.55252 14.25H8.37576C8.39208 14.1025 8.41009 13.9551 8.4324 13.8096C8.64871 12.4 9.13658 11.1002 9.72147 9.9932ZM11.7674 9.50492C10.9608 10.6714 10.1867 12.2654 9.91483 14.0371C9.90404 14.1075 9.89668 14.1791 9.88748 14.25H14.283C14.2688 14.131 14.2532 14.0125 14.2342 13.8955C13.9517 12.1607 13.1499 10.6253 12.3113 9.50882C12.2083 9.50307 12.1043 9.50004 11.9998 9.50003C11.922 9.50003 11.8444 9.50172 11.7674 9.50492ZM14.4588 10.0801C15.0289 11.1196 15.4993 12.3314 15.7146 13.6543C15.7466 13.8506 15.7716 14.0497 15.7918 14.25H17.4471C17.1974 12.4196 16.0485 10.8763 14.4588 10.0801ZM13.4685 3.12894C14.6921 2.31882 16.4037 1.97042 18.6746 2.50882C19.3711 2.67431 19.8223 3.43752 19.4998 4.15628C19.0938 5.06084 18.3279 6.14537 17.1268 6.88773C16.0057 7.5805 14.5479 7.94513 12.7498 7.63773V8.00003H11.2498V7.63773C9.45159 7.94524 7.9939 7.58045 6.87283 6.88773C5.67176 6.14541 4.90582 5.06082 4.49978 4.15628C4.17726 3.43743 4.62837 2.67418 5.32497 2.50882C7.59579 1.97047 9.3075 2.31881 10.531 3.12894C11.1718 3.55335 11.6516 4.08671 11.9998 4.6387C12.348 4.08671 12.8277 3.55333 13.4685 3.12894ZM9.70291 4.37894C8.94224 3.87528 7.78387 3.5508 6.0447 3.88772C6.38135 4.49478 6.91355 5.14889 7.66189 5.61136C8.47707 6.11505 9.58958 6.42049 11.0799 6.14652C10.8484 5.52427 10.4121 4.84862 9.70291 4.37894ZM17.9549 3.88772C16.2157 3.55075 15.0574 3.87529 14.2967 4.37894C13.5873 4.84862 13.1513 5.5242 12.9197 6.14652C14.41 6.42044 15.5225 6.11511 16.3377 5.61136C17.0861 5.14885 17.6183 4.49481 17.9549 3.88772Z" fill="white"/>
</svg>
