<svg width="24" height="24" viewBox="0 0 24 24" fill="none" xmlns="http://www.w3.org/2000/svg">
<path d="M12 2C17.5228 2 22 6.47715 22 12C22 17.5228 17.5228 22 12 22C6.47715 22 2 17.5228 2 12C2 6.47715 6.47715 2 12 2ZM8.55664 12.75C8.60566 15.2543 9.4394 17.9203 11.626 20.4902C11.75 20.4956 11.8746 20.5 12 20.5C12.127 20.5 12.2533 20.4957 12.3789 20.4902C14.6559 17.8559 15.5589 15.2044 15.6572 12.75H8.55664ZM3.53516 12.75C3.83899 16.2243 6.2307 19.0992 9.4502 20.1104C7.77718 17.6629 7.09954 15.1442 7.05762 12.75H3.53516ZM17.1582 12.75C17.0745 15.1146 16.3343 17.6179 14.5908 20.0957C17.7894 19.0729 20.1623 16.2094 20.4648 12.75H17.1582ZM14.4668 3.86426C15.5951 5.56157 16.5971 7.71505 16.9902 10.1299C17.0501 10.498 17.0951 10.8716 17.125 11.25H20.4648C20.1584 7.74588 17.7281 4.85178 14.4668 3.86426ZM11.7363 3.50586C10.4466 5.23521 9.13812 7.74705 8.7041 10.5762C8.66996 10.7988 8.6411 11.0235 8.61816 11.25H15.6201C15.5936 10.9529 15.5568 10.6591 15.5098 10.3701C15.0567 7.58777 13.6941 5.16316 12.3467 3.50781C12.2317 3.5032 12.1161 3.5 12 3.5C11.9118 3.5 11.8239 3.50319 11.7363 3.50586ZM9.71289 3.81348C6.36178 4.74772 3.84718 7.68195 3.53516 11.25H7.1123C7.13975 10.9467 7.1751 10.6459 7.2207 10.3486C7.60465 7.84583 8.60272 5.58754 9.71289 3.81348Z" fill="black"/>
</svg>
