<svg width="48" height="48" viewBox="0 0 48 48" fill="none" xmlns="http://www.w3.org/2000/svg">
<path d="M16.1214 7.72371C16.9759 5.03935 20.2462 4.08636 22.4037 5.81062L22.6078 5.9864L23.9437 7.2032L25.2796 5.9864C27.4288 4.02766 30.8839 4.95291 31.766 7.72371L32.3109 9.43757C32.3125 9.44226 32.3177 9.44541 32.3226 9.44441L34.0785 9.05867C36.9192 8.43686 39.4503 10.9679 38.8285 13.8087L38.4437 15.5645L38.4496 15.5762L40.1634 16.1212C42.9343 17.0032 43.8596 20.4583 41.9007 22.6075L40.6839 23.9434L41.9007 25.2794C43.8595 27.4286 42.9343 30.8837 40.1634 31.7657L38.4496 32.3106C38.4449 32.3123 38.4427 32.3174 38.4437 32.3223L38.8285 34.0782C39.4503 36.9189 36.9192 39.449 34.0785 38.8272L32.3226 38.4425C32.3177 38.4414 32.3125 38.4446 32.3109 38.4493L31.766 40.1622C30.8842 42.9333 27.4289 43.8592 25.2796 41.9005L23.9437 40.6827L22.6078 41.9005L22.4037 42.0762C20.3157 43.7448 17.1853 42.9059 16.2113 40.4171L16.1214 40.1622L15.5765 38.4493C15.5749 38.4446 15.5697 38.4414 15.5648 38.4425L13.8089 38.8272L13.5433 38.876C10.9008 39.2771 8.60922 36.9863 9.0101 34.3438L9.05893 34.0782L9.4437 32.3223C9.44473 32.3174 9.44254 32.3123 9.43784 32.3106L7.72397 31.7657L7.47006 31.6759C4.98093 30.7019 4.14215 27.5715 5.81088 25.4835L5.98666 25.2794L7.20346 23.9434L5.98666 22.6075C4.02781 20.4583 4.9531 17.0032 7.72397 16.1212L9.43784 15.5762L9.4437 15.5645L9.05893 13.8087C8.43712 10.9679 10.9682 8.43686 13.8089 9.05867L15.5648 9.44441L15.5765 9.43757L16.1214 7.72371ZM17.1068 20.5538C16.4213 20.0805 15.5077 20.1039 14.847 20.6114C14.1068 21.1804 13.884 22.2002 14.3187 23.0264L14.8851 24.1036C15.1622 24.6303 14.752 25.2561 14.1585 25.212L8.45834 24.7862L8.30893 24.9503L7.09116 26.2862C5.86706 27.6295 6.44616 29.7888 8.17807 30.3399L9.89096 30.8848C10.6318 31.1205 11.0716 31.8822 10.9056 32.6417L10.5208 34.3985C10.1324 36.1738 11.7133 37.7547 13.4886 37.3663L15.2455 36.9815L15.3871 36.9571C16.05 36.8769 16.6895 37.2462 16.9515 37.8604L17.0013 37.9962L17.5472 39.7091C18.0985 41.4408 20.2577 42.0193 21.6009 40.795L22.9369 39.5782L23.1956 39.3409V34.4014C23.1959 33.8543 23.7584 33.4884 24.2591 33.7091L25.4447 34.2305C26.2953 34.6054 27.3085 34.3164 27.8441 33.544C28.3323 32.8397 28.2979 31.8914 27.7621 31.2344C27.2598 30.6187 26.429 30.3777 25.6751 30.629L24.1947 31.1231C23.6788 31.2949 23.1555 30.8828 23.2005 30.3409L23.6712 24.6866L17.9945 25.211C17.3876 25.2668 16.9663 24.6192 17.263 24.087L17.7601 23.1973C18.2607 22.3001 17.997 21.1701 17.1517 20.586L17.1068 20.5538ZM25.183 24.546L24.7826 29.3497L25.2025 29.21C26.5457 28.7624 28.0262 29.192 28.9212 30.2891C29.8841 31.4697 29.9363 33.152 29.0736 34.3966C28.1357 35.7492 26.3568 36.2676 24.8412 35.5997L24.6917 35.5323V39.3409L24.9505 39.5782L26.2865 40.795C27.6297 42.0193 29.7889 41.4408 30.3402 39.7091L30.8861 37.9962C31.1218 37.2554 31.8825 36.8156 32.6419 36.9815L34.3988 37.3663C36.1741 37.7547 37.755 36.1738 37.3665 34.3985L36.9818 32.6417C36.8158 31.8823 37.2556 31.1206 37.9964 30.8848L39.7093 30.3399C41.4412 29.7888 42.0203 27.6295 40.7962 26.2862L39.1908 24.5245L35.8783 24.1466L36.1859 24.9395C36.7586 26.4175 36.2353 28.0958 34.9242 28.9864C33.8103 29.7428 32.3543 29.7712 31.2113 29.0596L31.1205 29.004C29.7079 28.1245 29.0907 26.385 29.6322 24.8116L29.8734 24.1143L25.183 24.546ZM30.3402 8.17781C29.789 6.44588 27.6298 5.86754 26.2865 7.09187L24.9505 8.30867L24.8968 8.35652L25.7562 13.4415C25.8596 14.0529 25.2249 14.5235 24.6703 14.2462L23.5423 13.6817C22.7534 13.287 21.7964 13.4873 21.2318 14.1651C20.6639 14.8471 20.6427 15.8314 21.182 16.5362L21.2494 16.6241C21.8253 17.3763 22.8439 17.6321 23.7074 17.2423L24.6996 16.794C25.1932 16.5713 25.7418 16.9233 25.7689 17.4425L25.766 17.5479L25.3089 23.0343L30.8714 22.5206L30.973 22.5186C31.4362 22.5364 31.7772 22.9706 31.6839 23.4249L31.6576 23.5216L31.0462 25.2979C30.7316 26.2121 31.0898 27.2234 31.9105 27.7344L32.0013 27.7901C32.6422 28.1891 33.4588 28.1731 34.0833 27.7491C34.8186 27.2497 35.1125 26.3084 34.7914 25.4796L34.0433 23.5499C33.8376 23.0186 34.2702 22.4579 34.8363 22.5225L39.472 23.0518L39.5785 22.9356L40.7962 21.6007C42.0205 20.2574 41.4412 18.0981 39.7093 17.5469L37.9964 17.001C37.2557 16.7653 36.8159 16.0046 36.9818 15.2452L37.3665 13.4884C37.755 11.713 36.1741 10.1321 34.3988 10.5206L32.6419 10.9053C31.8826 11.0713 31.1218 10.6315 30.8861 9.8907L30.3402 8.17781ZM21.6009 7.09187C20.2576 5.86754 18.0984 6.44588 17.5472 8.17781L17.0013 9.8907C16.7656 10.6314 16.0049 11.0713 15.2455 10.9053L13.4886 10.5206C11.7133 10.1321 10.1324 11.713 10.5208 13.4884L10.9056 15.2452C11.0715 16.0045 10.6317 16.7653 9.89096 17.001L8.17807 17.5469C6.44616 18.0981 5.86693 20.2574 7.09116 21.6007L8.64096 23.2999L12.9476 23.6221C12.2421 22.1698 12.6483 20.4146 13.9369 19.4249C15.1126 18.5219 16.7366 18.4809 17.9564 19.3233L18.0013 19.3546C19.3787 20.306 19.8729 22.0865 19.2279 23.5948L23.7972 23.1729L24.1732 18.6651C22.7092 19.2479 21.0274 18.794 20.0619 17.5323L19.9955 17.4444C19.0318 16.185 19.0676 14.4267 20.0824 13.2081C21.0516 12.0445 22.6668 11.6703 24.0423 12.2677L23.4515 8.77644L22.9369 8.30867L21.6009 7.09187Z" fill="#1D1D1F"/>
</svg>
