<svg width="48" height="48" viewBox="0 0 48 48" fill="none" xmlns="http://www.w3.org/2000/svg">
<g clip-path="url(#clip0_904_660)">
<path d="M34.3711 29.333C39.6893 29.3331 44 33.7681 44 39.2383C43.9999 39.659 43.6688 40 43.2598 40C42.8507 40 42.5187 39.659 42.5186 39.2383C42.5186 34.6097 38.8711 30.8576 34.3711 30.8574C29.871 30.8574 26.2227 34.6096 26.2227 39.2383C26.2226 39.6588 25.8912 39.9997 25.4824 40C25.0734 40 24.7413 39.659 24.7412 39.2383C24.7412 33.768 29.0528 29.333 34.3711 29.333ZM34.3701 8C35.3245 8 36.0984 8.7957 36.0986 9.77734V15.8291C36.0984 16.2496 35.7672 16.5906 35.3584 16.5908C34.9494 16.5908 34.6174 16.2497 34.6172 15.8291V9.77734C34.617 9.63728 34.5063 9.52344 34.3701 9.52344H5.72852C5.59229 9.52344 5.48167 9.63728 5.48145 9.77734V25.4199H28.2959C28.7048 25.4201 29.037 25.7611 29.0371 26.1816C29.0371 26.6023 28.7048 26.9432 28.2959 26.9434H5.48145V30.0957C5.48169 30.2358 5.5923 30.3496 5.72852 30.3496H26.4609C26.8698 30.3499 27.2012 30.6907 27.2012 31.1113C27.2011 31.5319 26.8697 31.8728 26.4609 31.873H22.6924L23.376 37.8369C23.4452 38.4409 22.9868 38.9726 22.3955 38.9727H16.7168L16.6074 38.9658C16.0699 38.9054 15.6704 38.4033 15.7354 37.8369L16.4189 31.873H5.72852C4.7741 31.873 4.00024 31.0773 4 30.0957V9.77734C4.00023 8.7957 4.77409 8 5.72852 8H34.3701ZM17.2705 37.4482H21.8408L21.2021 31.8848H17.9092L17.2705 37.4482ZM34.3701 17.9043C37.0974 17.9044 39.3086 20.1792 39.3086 22.9844C39.3085 25.7894 37.0973 28.0634 34.3701 28.0635C31.6429 28.0635 29.4318 25.7895 29.4316 22.9844C29.4316 20.1791 31.6428 17.9043 34.3701 17.9043ZM34.3701 19.4287C32.461 19.4287 30.9131 21.0207 30.9131 22.9844C30.9132 24.9479 32.4611 26.54 34.3701 26.54C36.2791 26.5399 37.827 24.9479 37.8271 22.9844C37.8271 21.0208 36.2792 19.4288 34.3701 19.4287Z" fill="#1D1D1F"/>
</g>
<defs>
<clipPath id="clip0_904_660">
<rect width="48" height="48" fill="white"/>
</clipPath>
</defs>
</svg>
