<svg width="48" height="48" viewBox="0 0 48 48" fill="none" xmlns="http://www.w3.org/2000/svg">
<g clip-path="url(#clip0_909_1107)">
<path d="M23.0508 5.29131C23.6159 4.92253 24.3472 4.90235 24.9326 5.23955L32.8145 9.78056H35.1191C36.1112 9.78067 36.9098 10.5779 36.8906 11.5491L36.8486 13.6155L43.6797 18.346C43.8805 18.4853 43.9999 18.7114 44 18.9524V42.2562C44 42.6669 43.6597 43.0003 43.2402 43.0003H4.75977C4.34031 43.0003 4 42.6669 4 42.2562V18.9524C4.00014 18.7171 4.1146 18.496 4.30762 18.3558L10.1465 14.1155V11.5159C10.1465 10.5576 10.9394 9.78081 11.918 9.78056H16.1758L23.0508 5.29131ZM24.1572 28.4505C24.0653 28.3796 23.9347 28.3796 23.8428 28.4505L6.94824 41.513H41.0518L24.1572 28.4505ZM5.51855 40.72L18.2998 30.8401L5.51855 20.5286V40.72ZM29.6992 30.8401L42.4814 40.72V20.5286L29.6992 30.8401ZM11.918 11.2679C11.7784 11.2681 11.665 11.3791 11.665 11.5159V23.5599L19.5205 29.8958L22.9023 27.2835C23.5461 26.7861 24.4539 26.7861 25.0977 27.2835L28.4785 29.8958L35.1113 24.5452L35.373 11.5208C35.3758 11.3821 35.2608 11.268 35.1191 11.2679H11.918ZM31.0889 24.1595C31.5083 24.1595 31.8486 24.4919 31.8486 24.9026C31.8486 25.3134 31.5083 25.6468 31.0889 25.6468H15.8994C15.48 25.6468 15.1396 25.3134 15.1396 24.9026C15.1397 24.4919 15.48 24.1595 15.8994 24.1595H31.0889ZM36.6562 23.3001L41.9893 18.9974L36.8135 15.4124L36.6562 23.3001ZM5.99121 18.9827L10.1465 22.3343V15.9671L5.99121 18.9827ZM31.0889 19.9446C31.5083 19.9446 31.8486 20.278 31.8486 20.6888C31.8484 21.0993 31.5082 21.4319 31.0889 21.4319H15.8994C15.4801 21.4319 15.1399 21.0993 15.1396 20.6888C15.1396 20.278 15.48 19.9446 15.8994 19.9446H31.0889ZM31.0889 15.7298C31.5083 15.7298 31.8486 16.0632 31.8486 16.4739C31.8486 16.8846 31.5083 17.2171 31.0889 17.2171H15.8994C15.48 17.2171 15.1397 16.8846 15.1396 16.4739C15.1396 16.0632 15.48 15.7298 15.8994 15.7298H31.0889ZM24.1621 6.52178C24.0785 6.47363 23.9743 6.47697 23.8936 6.52959L18.9131 9.78056H29.8184L24.1621 6.52178Z" fill="#1D1D1F"/>
</g>
<defs>
<clipPath id="clip0_909_1107">
<rect width="48" height="48" fill="white"/>
</clipPath>
</defs>
</svg>
