<svg width="24" height="24" viewBox="0 0 24 24" fill="none" xmlns="http://www.w3.org/2000/svg">
<path d="M10 3C13.866 3 17 6.13401 17 10C17 11.6628 16.4186 13.1888 15.4502 14.3896L20.5303 19.4697C20.8231 19.7626 20.8231 20.2374 20.5303 20.5303C20.2374 20.8231 19.7626 20.8231 19.4697 20.5303L14.3896 15.4502C13.1888 16.4186 11.6628 17 10 17C6.13401 17 3 13.866 3 10C3 6.13401 6.13401 3 10 3ZM10 4.5C6.96243 4.5 4.5 6.96243 4.5 10C4.5 13.0376 6.96243 15.5 10 15.5C13.0376 15.5 15.5 13.0376 15.5 10C15.5 6.96243 13.0376 4.5 10 4.5Z" fill="white"/>
</svg>
