<svg width="24" height="24" viewBox="0 0 24 24" fill="none" xmlns="http://www.w3.org/2000/svg">
<path d="M19 2C19.5523 2 20 2.44772 20 3V21L19.9951 21.1025C19.9472 21.573 19.573 21.9472 19.1025 21.9951L19 22H5L4.89746 21.9951C4.42703 21.9472 4.05278 21.573 4.00488 21.1025L4 21V3C4 2.48232 4.39333 2.05621 4.89746 2.00488L5 2H19ZM5.5 20.5H8.99902V15.5C8.99902 14.8096 9.55867 14.25 10.249 14.25H13.7646C14.455 14.25 15.0146 14.8096 15.0146 15.5V20.5H18.5V3.5H5.5V20.5ZM10.499 20.5H13.5146V15.75H10.499V20.5ZM11 12H9V10H11V12ZM15 12H13V10H15V12ZM11 8H9V6H11V8ZM15 8H13V6H15V8Z" fill="black"/>
</svg>
