<svg width="48" height="48" viewBox="0 0 48 48" fill="none" xmlns="http://www.w3.org/2000/svg">
<g clip-path="url(#clip0_899_411)">
<rect x="0.05" y="0.05" width="47.9" height="47.9" stroke="#2407FF" stroke-opacity="0.2" stroke-width="0.1"/>
<path d="M30.5837 24.126C34.2316 24.126 37.189 27.0575 37.1892 30.6738C37.1892 32.2096 36.6536 33.6206 35.7605 34.7373L40.7761 39.71C41.0737 40.005 41.0737 40.4833 40.7761 40.7783C40.4784 41.0734 39.9966 41.0734 39.6989 40.7783L34.6823 35.8057C33.5558 36.6911 32.133 37.2226 30.5837 37.2227C26.9356 37.2227 23.9782 34.2903 23.9782 30.6738C23.9784 27.0575 26.9357 24.126 30.5837 24.126ZM21.4372 22.3633C22.9209 22.3633 24.3546 22.5611 25.7048 22.9297C26.1105 23.0405 26.3487 23.4562 26.237 23.8584C26.1253 24.2606 25.7062 24.4972 25.3005 24.3867C24.0819 24.0541 22.7839 23.874 21.4372 23.874C14.5674 23.8742 9.06225 28.5209 8.52413 34.2705C8.52027 34.3128 8.53352 34.3503 8.5671 34.3848C8.60394 34.4224 8.66354 34.4521 8.73604 34.4521H23.2458C23.6665 34.4522 24.0073 34.79 24.0075 35.207C24.0075 35.6243 23.6667 35.9628 23.2458 35.9629H8.73604C7.77494 35.9629 6.91002 35.1745 7.00753 34.1309C7.63091 27.4701 13.9237 22.3635 21.4372 22.3633ZM30.5837 25.6367C27.7776 25.6367 25.5028 27.8921 25.5026 30.6738C25.5026 33.4557 27.7775 35.7109 30.5837 35.7109C33.3899 35.7109 35.6648 33.4557 35.6648 30.6738C35.6646 27.8921 33.3898 25.6368 30.5837 25.6367ZM20.9294 7C24.858 7 28.0426 10.1572 28.0427 14.0518C28.0427 17.9464 24.8581 21.1035 20.9294 21.1035C17.0008 21.1034 13.8161 17.9463 13.8161 14.0518C13.8162 10.1572 17.0009 7.00012 20.9294 7ZM20.9294 8.51074C17.8427 8.51086 15.3406 10.9918 15.3405 14.0518C15.3405 17.1118 17.8427 19.5927 20.9294 19.5928C24.0162 19.5928 26.5192 17.1118 26.5192 14.0518C26.5192 10.9917 24.0162 8.51074 20.9294 8.51074Z" fill="#4D4D53"/>
</g>
<defs>
<clipPath id="clip0_899_411">
<rect width="48" height="48" fill="white"/>
</clipPath>
</defs>
</svg>
