<svg width="48" height="48" viewBox="0 0 48 48" fill="none" xmlns="http://www.w3.org/2000/svg">
<g clip-path="url(#clip0_899_339)">
<rect x="0.05" y="0.05" width="47.9" height="47.9" stroke="#2407FF" stroke-opacity="0.2" stroke-width="0.1"/>
<path d="M24.3615 4.0048C31.9264 4.19178 38 10.2296 38 17.6509L37.9951 18.0054C37.8996 21.6563 36.3339 24.9503 33.8538 27.3465C32.1091 29.032 30.6651 31.149 30.6651 33.5438L30.6552 33.7435C30.6253 34.0309 30.5316 34.2999 30.3883 34.5369C30.4358 34.6511 30.4621 34.776 30.4621 34.9067V37.1399L30.4562 37.2408C30.4526 37.2754 30.4457 37.3092 30.4385 37.3426C30.4532 37.4094 30.4621 37.479 30.4621 37.5501V39.7833L30.4562 39.8842C30.4076 40.3468 30.0305 40.7153 29.5559 40.7621L29.4534 40.7669H27.9374C27.6142 42.6028 25.9751 44 24 44C22.0249 44 20.3858 42.6028 20.0626 40.7669H18.5476L18.4441 40.7621C17.9698 40.715 17.5923 40.3466 17.5438 39.8842L17.5388 39.7833V37.5501C17.5388 37.4798 17.5461 37.4107 17.5605 37.3445C17.5531 37.3106 17.5474 37.276 17.5438 37.2408L17.5388 37.1399V34.9067C17.5388 34.7764 17.5646 34.6517 17.6117 34.5379C17.4681 34.3007 17.3747 34.0312 17.3448 33.7435L17.3339 33.5438C17.3339 31.2985 16.0656 29.2975 14.4693 27.6673L14.1462 27.3465C11.6661 24.9503 10.1004 21.6563 10.0049 18.0054L10 17.6509C10 10.1117 16.268 4 24 4L24.3615 4.0048ZM21.6131 40.7669C21.9093 41.7813 22.8647 42.5246 24 42.5246C25.1353 42.5246 26.0907 41.7813 26.3869 40.7669H21.6131ZM19.0519 39.2915H28.9491V38.1235H19.0519V39.2915ZM28.8624 35.4917L28.6565 35.5023H19.3435L19.1376 35.4917C19.1088 35.4888 19.0804 35.4832 19.0519 35.4792V36.5665H28.9491V35.4792C28.9203 35.4833 28.8916 35.4888 28.8624 35.4917ZM24 5.47536C17.1037 5.47536 11.5131 10.9266 11.5131 17.6509C11.5131 21.0333 12.9259 24.0907 15.2111 26.2985C17.0637 28.0884 18.847 30.5638 18.847 33.5438C18.8472 33.6984 18.923 33.8347 19.0391 33.9232H21.0901V24.5062C18.7319 23.8031 17.168 22.7544 16.4178 21.6102C16.0084 20.9857 15.8224 20.2977 15.9558 19.6325C16.0913 18.9575 16.534 18.4149 17.1606 18.062C17.9285 17.6297 18.7363 17.7734 19.3908 18.1274C20.0296 18.4729 20.6046 19.052 21.0733 19.6863C21.5481 20.3288 21.9497 21.0771 22.2229 21.8167C22.3922 22.275 22.5208 22.7519 22.5785 23.2133H25.4215C25.4792 22.7519 25.6078 22.275 25.7771 21.8167C26.0503 21.0771 26.4519 20.3288 26.9267 19.6863C27.3954 19.052 27.9704 18.4729 28.6092 18.1274C29.2637 17.7734 30.0715 17.6297 30.8394 18.062C31.466 18.4149 31.9087 18.9575 32.0442 19.6325C32.1776 20.2977 31.9916 20.9857 31.5822 21.6102C30.832 22.7544 29.2681 23.8031 26.9099 24.5062V33.9232H28.9609C29.077 33.8347 29.1528 33.6984 29.153 33.5438C29.153 30.5638 30.9363 28.0884 32.7889 26.2985C35.0741 24.0907 36.4869 21.0333 36.4869 17.6509C36.4869 10.9266 30.8963 5.47536 24 5.47536ZM22.6032 33.9232H25.3968V24.6887H22.6032V33.9232ZM18.6569 19.4173C18.3012 19.225 18.0814 19.2471 17.9171 19.3395C17.6115 19.5116 17.4798 19.7192 17.4403 19.9159C17.399 20.1224 17.4384 20.4282 17.6925 20.8159C18.1333 21.4881 19.1604 22.2923 20.9856 22.9194C20.9384 22.7286 20.8769 22.5258 20.7995 22.3162C20.5733 21.7041 20.2371 21.0783 19.8459 20.5488C19.4484 20.0109 19.0286 19.6184 18.6569 19.4173ZM30.0829 19.3395C29.9186 19.2471 29.6988 19.225 29.3431 19.4173C28.9714 19.6184 28.5516 20.0109 28.1541 20.5488C27.7629 21.0783 27.4267 21.7041 27.2005 22.3162C27.1231 22.5258 27.0616 22.7286 27.0144 22.9194C28.8396 22.2923 29.8667 21.4881 30.3075 20.8159C30.5616 20.4282 30.601 20.1224 30.5597 19.9159C30.5202 19.7192 30.3885 19.5116 30.0829 19.3395Z" fill="#4D4D53"/>
</g>
<defs>
<clipPath id="clip0_899_339">
<rect width="48" height="48" fill="white"/>
</clipPath>
</defs>
</svg>
