<svg width="48" height="48" viewBox="0 0 48 48" fill="none" xmlns="http://www.w3.org/2000/svg">
<g clip-path="url(#clip0_898_178)">
<rect x="0.05" y="0.05" width="47.9" height="47.9" stroke="#2407FF" stroke-opacity="0.2" stroke-width="0.1"/>
<path d="M22.6578 4C23.8028 4 24.7309 4.89082 24.7309 5.9897V6.98455H34.0598C34.6323 6.98455 35.0964 7.42996 35.0964 7.9794V9.96911H43.4808C43.8898 9.96911 44.1377 10.4026 43.9181 10.7337L40.7974 15.4408L43.9181 20.1479C44.1377 20.479 43.8898 20.9125 43.4808 20.9125H30.9502C30.4136 20.9125 29.9719 20.5212 29.9187 20.0196L29.9136 19.9176V17.9279H24.7309V23.0158C24.9084 23.103 25.1264 23.2216 25.2806 23.3695C25.4475 23.5297 25.5682 23.7494 25.649 23.9126C25.7419 24.1 25.834 24.3236 25.9233 24.5606C25.9297 24.5775 25.9352 24.5949 25.9416 24.6121H29.4966L29.7507 24.6247C31.0065 24.747 31.9865 25.7645 31.9867 27.002C31.9867 27.6394 31.7252 28.2173 31.3014 28.6459C31.7253 29.0743 31.9866 29.6523 31.9867 30.2897C31.9867 31.0899 31.5752 31.7959 30.9461 32.2299C31.2222 32.6146 31.3864 33.0797 31.3865 33.5822C31.3863 34.3976 30.959 35.1153 30.3094 35.5467C30.5881 35.9325 30.7537 36.3998 30.7538 36.9049C30.7536 38.1424 29.7735 39.1609 28.5177 39.2832L28.2637 39.2958H24.9516L24.7309 39.2842V42.0103L24.7198 42.2133C24.6135 43.2166 23.7311 44 22.6578 44L22.4463 43.9893C21.4705 43.8944 20.695 43.1498 20.5959 42.2133L20.5847 42.0103V39.7194C18.6378 39.9692 15.2224 39.7873 12.7256 37.584H11.2558V37.8249L11.2508 37.9269C11.2011 38.3949 10.8132 38.7673 10.3256 38.8149L10.2193 38.8198H5.03655L4.93026 38.8149C4.44264 38.7673 4.05471 38.3949 4.00506 37.9269L4 37.8249V25.8867C4 25.3373 4.46408 24.8919 5.03655 24.8919H10.2193C10.7917 24.8919 11.2558 25.3373 11.2558 25.8867V26.1354H12.7499C12.7664 26.1277 12.7964 26.1139 12.839 26.0869C12.9553 26.013 13.1088 25.8907 13.3006 25.7138C13.6851 25.3592 14.1306 24.8734 14.6246 24.3362C15.1061 23.8124 15.6289 23.2451 16.1328 22.7778C16.6129 22.3327 17.1765 21.8791 17.7474 21.6965C18.3106 21.5163 19.0417 21.538 19.7233 21.6178C20.0021 21.6504 20.2914 21.6977 20.5847 21.7519V5.9897C20.5847 4.89082 21.5129 4 22.6578 4ZM22.1395 42.0103C22.1398 42.2848 22.3718 42.5077 22.6578 42.5077C22.9439 42.5077 23.1758 42.2848 23.1761 42.0103V38.5769C22.7354 38.1456 22.4616 37.5565 22.4614 36.9049C22.4615 36.2537 22.7359 35.6658 23.1761 35.2348V35.0357C22.8529 34.6326 22.6579 34.13 22.6578 33.5822C22.6579 33.0337 22.852 32.5292 23.1761 32.1259V31.2914C22.7268 30.9989 22.3532 30.6304 22.1395 30.4238V42.0103ZM19.535 23.0984C18.8887 23.0228 18.4535 23.0445 18.2393 23.113C18.0329 23.179 17.6892 23.4097 17.2139 23.8504C16.7625 24.269 16.2808 24.7902 15.7907 25.3232C15.313 25.8428 14.819 26.3832 14.3776 26.7902C14.1567 26.9939 13.9251 27.1866 13.6953 27.3324C13.4864 27.4649 13.1738 27.6277 12.8106 27.6277H11.2558V36.0917H12.8197C13.1682 36.0917 13.4871 36.2267 13.7217 36.4386C15.8367 38.3491 18.9182 38.4732 20.5847 38.2097V29.0938C20.194 29.7222 19.7118 30.3976 19.1392 31.0106C18.2249 31.9893 17.0118 32.8859 15.5123 33.0916C15.0874 33.1499 14.6936 32.8669 14.6327 32.4591C14.572 32.0514 14.8669 31.6733 15.2917 31.6149C16.2761 31.4799 17.1831 30.8703 17.9822 30.0148C18.7743 29.1668 19.3911 28.1503 19.8053 27.3547C20.0786 26.8297 20.6326 26.6243 21.0959 26.6397C21.5321 26.6542 22.0411 26.8716 22.2853 27.3635L22.3299 27.4655L22.591 28.1076C22.6804 28.3194 22.7713 28.5245 22.8593 28.71C22.9474 28.8959 23.0287 29.0525 23.0992 29.1724C23.178 29.3066 23.2153 29.3461 23.2075 29.3386C23.4915 29.6112 23.8051 29.9237 24.156 30.1236C24.4888 30.3132 24.687 30.311 24.8605 30.2149C25.4904 29.8659 25.5083 29.3608 25.5083 28.8713C25.5083 28.885 25.5056 28.8307 25.4749 28.6663C25.4482 28.5232 25.4086 28.3363 25.3575 28.1174C25.2553 27.6799 25.1123 27.1326 24.9536 26.5843C24.7944 26.0343 24.6223 25.4945 24.4617 25.0687C24.381 24.8549 24.3071 24.6811 24.244 24.5538C24.2092 24.4835 24.1843 24.4433 24.1721 24.4236C24.1466 24.4083 24.0942 24.3784 24.0051 24.3352C23.8536 24.2616 23.6467 24.1743 23.3937 24.0787C22.8882 23.8875 22.2345 23.6778 21.5464 23.4977C20.8567 23.3172 20.1502 23.1704 19.535 23.0984ZM24.9516 36.0072C24.4351 36.0074 24.0165 36.4092 24.0163 36.9049C24.0165 37.4005 24.4352 37.8034 24.9516 37.8036H28.2637C28.7801 37.8034 29.1987 37.4005 29.199 36.9049C29.1988 36.4092 28.7801 36.0074 28.2637 36.0072H24.9516ZM5.55482 37.3275H9.701V26.3841H5.55482V37.3275ZM25.148 32.6845C24.6315 32.6847 24.2128 33.0865 24.2126 33.5822C24.2129 34.0779 24.6315 34.4807 25.148 34.4809H28.8963C29.4128 34.4807 29.8314 34.0779 29.8316 33.5822C29.8314 33.0865 29.4128 32.6847 28.8963 32.6845H25.148ZM27.0419 29.393C26.9883 29.9139 26.7969 30.6216 26.1096 31.1884H29.4966C30.0132 31.1882 30.4319 30.7856 30.4319 30.2897C30.4316 29.7941 30.013 29.3932 29.4966 29.393H27.0419ZM26.4517 26.185C26.6168 26.7555 26.7655 27.3271 26.8738 27.7909C26.8824 27.8276 26.889 27.8642 26.8971 27.8997H29.5057C30.018 27.8948 30.4318 27.4949 30.4319 27.002C30.4317 26.5063 30.0131 26.1045 29.4966 26.1043H26.4274C26.4353 26.1313 26.4439 26.1581 26.4517 26.185ZM22.6578 5.49228C22.3716 5.49228 22.1395 5.71498 22.1395 5.9897V21.8966L23.1761 22.0589V17.0963C23.1669 17.0431 23.1609 16.9887 23.1609 16.9331V7.9794C23.1609 7.92341 23.1668 7.86868 23.1761 7.81521V5.9897C23.1761 5.71498 22.9441 5.49228 22.6578 5.49228ZM35.0964 16.9331C35.0964 17.0254 35.0814 17.1144 35.0569 17.1993C35.0308 17.3671 34.9498 17.5281 34.8069 17.6491L32.7135 19.4202H41.592L39.4855 16.2423C39.1614 15.7535 39.1614 15.1281 39.4855 14.6393L41.592 11.4614H35.0964V16.9331ZM31.4685 18.4836L32.1264 17.9279H31.4685V18.4836ZM24.7309 16.4356H33.5416V8.47683H24.7309V16.4356Z" fill="white"/>
</g>
<defs>
<clipPath id="clip0_898_178">
<rect width="48" height="48" fill="white"/>
</clipPath>
</defs>
</svg>
