<svg width="48" height="48" viewBox="0 0 48 48" fill="none" xmlns="http://www.w3.org/2000/svg">
<g clip-path="url(#clip0_898_219)">
<rect x="0.05" y="0.05" width="47.9" height="47.9" stroke="#2407FF" stroke-opacity="0.2" stroke-width="0.1"/>
<path d="M35.2275 20.5313C37.0653 20.5315 38.541 22.0071 38.541 23.8105H37.0029C37.0029 22.8261 36.2005 22.0413 35.2275 22.041C34.2563 22.0411 33.4543 22.8229 33.4512 23.8047V23.8135C33.4512 23.819 33.4511 23.849 33.4502 23.877C33.4481 23.9398 33.4436 24.0382 33.4346 24.165C33.4161 24.4232 33.3777 24.8057 33.3008 25.2676C33.1455 26.1993 32.8385 27.4149 32.2422 28.6084H32.2412C31.6477 29.7958 30.7859 30.9276 29.5283 31.7666C28.2818 32.598 26.5404 33.2137 24.0615 33.2139C21.5826 33.2139 19.8147 32.5982 18.5342 31.7588C17.2427 30.9118 16.3438 29.7698 15.7158 28.5762C15.0846 27.3762 14.7454 26.1547 14.5654 25.2217C14.4764 24.7599 14.4277 24.3784 14.4023 24.1191C14.3897 23.9894 14.3825 23.8911 14.3789 23.8311V23.8301L14.376 23.7842V23.7607C14.3483 22.7785 13.5261 22.0172 12.5547 22.042C11.5818 22.0674 10.8005 22.8725 10.8262 23.8564L10.0566 23.875L9.94141 23.8779H10.3643L10.8252 23.8633L10.8262 23.874L10.8281 23.917L10.834 24.04C10.8402 24.1445 10.8502 24.2869 10.8672 24.4609C10.9016 24.8129 10.9644 25.3058 11.0771 25.8906C11.3013 27.0524 11.7326 28.6262 12.5703 30.2188C13.4115 31.8177 14.6811 33.4684 16.584 34.7158C16.9635 34.9646 17.3671 35.194 17.793 35.4043L18.2158 35.6133V42.3262C18.2159 42.4235 18.2935 42.4891 18.3721 42.4893H29.4561C29.5348 42.4893 29.6122 42.4235 29.6123 42.3262V35.7305L30.0498 35.5254C30.567 35.2825 31.0526 35.0087 31.5049 34.707C33.3867 33.4516 34.6195 31.7911 35.4219 30.1855C36.2206 28.587 36.6109 27.0086 36.8047 25.8457C36.9021 25.2605 36.9514 24.7679 36.9766 24.416C36.9892 24.2386 36.9966 24.0954 37 23.9941C37.0016 23.9474 37.0013 23.9134 37.002 23.8711C37.0022 23.8591 37.0028 23.8474 37.0029 23.8408V23.8135H38.541V23.8438C38.5409 23.8563 38.5402 23.8692 38.54 23.876C38.5398 23.8841 38.5401 23.8894 38.54 23.8945C38.5396 23.9217 38.5392 23.9794 38.5371 24.043C38.5331 24.1642 38.5256 24.3266 38.5117 24.5215C38.4837 24.9134 38.4293 25.4529 38.3232 26.0898C38.1134 27.3492 37.6874 29.0802 36.8027 30.8506C35.9119 32.6331 34.5209 34.5206 32.3691 35.9561C31.982 36.2143 31.5754 36.4524 31.1514 36.6709V42.3262C31.1513 43.2425 30.3995 44 29.4561 44H18.3721C17.4288 43.9998 16.6778 43.2424 16.6777 42.3262V36.5322C16.3514 36.3567 16.0336 36.1716 15.7285 35.9717C13.5613 34.5509 12.1343 32.6813 11.2031 30.9111C10.2779 29.1521 9.80805 27.4293 9.56543 26.1719V26.1709C9.44282 25.5351 9.37416 24.9967 9.33594 24.6055C9.31666 24.408 9.30585 24.2466 9.29883 24.1289C9.29541 24.0715 9.29178 24.0204 9.29004 23.9795V23.9785L9.28809 23.9355V23.9297C9.28785 23.9252 9.28732 23.9185 9.28711 23.9121V23.7266C9.33046 21.999 10.7353 20.5783 12.5146 20.5322H12.6855C14.4354 20.575 15.8529 21.9634 15.9131 23.6973L15.916 23.7422L15.9336 23.9746C15.955 24.1938 15.9979 24.5293 16.0771 24.9404C16.2386 25.7776 16.5396 26.8495 17.083 27.8828C17.6208 28.905 18.3611 29.8301 19.3887 30.5039C20.3938 31.1628 21.8586 31.7041 24.0615 31.7041C26.2648 31.704 27.6984 31.1626 28.6641 30.5186C29.6521 29.8594 30.3557 28.9539 30.8604 27.9443C31.3711 26.9222 31.644 25.8587 31.7832 25.0234C31.8513 24.6144 31.8837 24.2784 31.8994 24.0586C31.9072 23.9487 31.9107 23.8699 31.9121 23.8281C31.9123 23.8217 31.913 23.8159 31.9131 23.8115V23.791C31.9237 21.9963 33.3964 20.5314 35.2275 20.5313ZM23.9141 21.2148C26.4695 21.2149 28.5409 23.2487 28.541 25.7568C28.5408 28.2649 26.4694 30.2977 23.9141 30.2979C21.3587 30.2978 19.2874 28.2649 19.2871 25.7568C19.2872 23.2486 21.3586 21.2149 23.9141 21.2148ZM23.9141 22.7246C22.2082 22.7247 20.8253 24.0826 20.8252 25.7568C20.8254 27.431 22.2083 28.788 23.9141 28.7881C25.6198 28.788 27.0027 27.431 27.0029 25.7568C27.0028 24.0826 25.6199 22.7247 23.9141 22.7246ZM24.3838 13.167C25.447 12.2494 27.0668 12.3504 28.002 13.3936C28.9367 14.4371 28.8334 16.0275 27.7705 16.9453L23.9561 20.2373L20.207 16.9268C19.22 16.0552 19.0832 14.6018 19.8506 13.5723L20.0156 13.373C20.9627 12.3398 22.584 12.256 23.6367 13.1855L23.9951 13.5029L24.3838 13.167ZM26.8467 14.3906C26.473 13.9743 25.8249 13.9329 25.3994 14.2998L23.9824 15.5254L22.6074 14.3076L22.5254 14.2432C22.106 13.9421 21.5144 13.9955 21.1592 14.3828C20.7808 14.796 20.8147 15.4319 21.2354 15.8037L23.9668 18.2168L26.7549 15.8105C27.1789 15.4437 27.2205 14.8082 26.8467 14.3906ZM13.6582 15.1377C14.083 15.1378 14.4268 15.4757 14.4268 15.8926C14.4266 16.3094 14.0829 16.6474 13.6582 16.6475H9.76855C9.34395 16.6474 9.00018 16.3093 9 15.8926C9.00001 15.4757 9.34383 15.1378 9.76855 15.1377H13.6582ZM38.2305 15.1377C38.6553 15.1377 39 15.4756 39 15.8926C38.9999 16.3094 38.6552 16.6475 38.2305 16.6475H34.3418C33.9171 16.6475 33.5724 16.3094 33.5723 15.8926C33.5723 15.4756 33.917 15.1377 34.3418 15.1377H38.2305ZM13.1143 7.20605C13.4146 6.91123 13.9018 6.91124 14.2021 7.20605L17.041 9.99219C17.3413 10.287 17.3414 10.7657 17.041 11.0605C16.7406 11.355 16.2534 11.3552 15.9531 11.0605L13.1143 8.27344C12.8139 7.97866 12.814 7.5009 13.1143 7.20605ZM33.5371 7.20605C33.8375 6.91129 34.3237 6.91126 34.624 7.20605C34.9244 7.50089 34.9244 7.97861 34.624 8.27344L31.874 10.9727C31.5737 11.2674 31.0865 11.2674 30.7861 10.9727C30.486 10.6779 30.4861 10.2001 30.7861 9.90527L33.5371 7.20605ZM23.9141 4C24.3388 4.00011 24.6826 4.338 24.6826 4.75488V8.57227C24.6826 8.98912 24.3387 9.327 23.9141 9.32715C23.4893 9.32714 23.1445 8.98922 23.1445 8.57227V4.75488C23.1445 4.33794 23.4893 4 23.9141 4Z" fill="white"/>
</g>
<defs>
<clipPath id="clip0_898_219">
<rect width="48" height="48" fill="white"/>
</clipPath>
</defs>
</svg>
