<svg width="48" height="48" viewBox="0 0 48 48" fill="none" xmlns="http://www.w3.org/2000/svg">
<g clip-path="url(#clip0_898_200)">
<rect x="0.05" y="0.05" width="47.9" height="47.9" stroke="#2407FF" stroke-opacity="0.2" stroke-width="0.1"/>
<path d="M24 4C25.817 4 27.29 5.473 27.29 7.29004C27.29 8.86602 26.1817 10.1822 24.7021 10.5039V16.0322C26.3994 16.1798 27.9436 16.8573 29.1709 17.8984L32.625 14.4443C32.3118 13.9407 32.1299 13.3467 32.1299 12.71C32.1299 10.8929 33.6029 9.41992 35.4199 9.41992C37.237 9.41992 38.71 10.8929 38.71 12.71C38.71 14.527 37.237 16 35.4199 16C34.7833 16 34.1891 15.8189 33.6855 15.5059C33.068 16.1231 32.5232 16.6682 31.9785 17.2129L30.2197 18.9707C31.1833 20.1609 31.8127 21.6321 31.9639 23.2432H34.8418C35.2029 21.0571 37.1012 19.3896 39.3896 19.3896C41.9359 19.3896 44 21.4538 44 24C44 26.5462 41.9359 28.6104 39.3896 28.6104C37.0965 28.6104 35.1953 26.936 34.8398 24.7432H31.9648C31.8595 25.8862 31.5127 26.9584 30.9775 27.9111L36.9785 33.9121C37.4815 33.6002 38.0746 33.4199 38.71 33.4199C40.527 33.4199 42 34.8929 42 36.71C42 38.527 40.527 40 38.71 40C36.8929 40 35.4199 38.527 35.4199 36.71C35.4199 36.0718 35.6015 35.4761 35.916 34.9717L30.1074 29.1631C28.7923 30.7172 26.8968 31.7625 24.7539 31.9629V37.5068C26.2076 37.8477 27.29 39.1523 27.29 40.71C27.29 42.527 25.817 44 24 44C22.183 44 20.71 42.527 20.71 40.71C20.71 39.1495 21.7963 37.8428 23.2539 37.5049V31.9639C21.6499 31.8155 20.1845 31.1936 18.9961 30.2393L16.4297 32.8057C16.9293 33.5427 17.2207 34.4322 17.2207 35.3896C17.2207 37.9359 15.1566 40 12.6104 40C10.0641 40 8 37.9359 8 35.3896C8 32.8434 10.0641 30.7793 12.6104 30.7793C13.6576 30.7793 14.6234 31.1285 15.3975 31.7168L17.9189 29.1953C16.8745 27.974 16.1911 26.4355 16.0352 24.7432H10.4951C10.1582 26.2022 8.85145 27.29 7.29004 27.29C5.473 27.29 4 25.817 4 24C4 22.183 5.473 20.71 7.29004 20.71C8.84659 20.71 10.1503 21.791 10.4922 23.2432H16.0361C16.196 21.5394 16.891 19.9924 17.9502 18.7686L14.6855 15.5049C14.0615 15.8202 13.3573 16 12.6104 16C10.0641 16 8 13.9359 8 11.3896C8 8.84342 10.0641 6.7793 12.6104 6.7793C15.1566 6.7793 17.2207 8.84342 17.2207 11.3896C17.2207 12.6419 16.7205 13.7766 15.9102 14.6074L19.0332 17.7305C20.2021 16.8032 21.6351 16.1942 23.2021 16.0391V10.4814C21.7708 10.1248 20.71 8.83183 20.71 7.29004C20.71 5.473 22.183 4 24 4ZM24 38.9199C23.0114 38.9199 22.21 39.7213 22.21 40.71C22.21 41.6986 23.0114 42.5 24 42.5C24.9886 42.5 25.79 41.6986 25.79 40.71C25.79 39.7213 24.9886 38.9199 24 38.9199ZM12.6104 32.2793C10.8926 32.2793 9.5 33.6718 9.5 35.3896C9.5 37.1074 10.8926 38.5 12.6104 38.5C14.3282 38.5 15.7207 37.1074 15.7207 35.3896C15.7207 33.6718 14.3282 32.2793 12.6104 32.2793ZM38.71 34.9199C37.7213 34.9199 36.9199 35.7213 36.9199 36.71C36.9199 37.6986 37.7213 38.5 38.71 38.5C39.6986 38.5 40.5 37.6986 40.5 36.71C40.5 35.7213 39.6986 34.9199 38.71 34.9199ZM24 17.5C20.4101 17.5 17.5 20.4101 17.5 24C17.5 27.5899 20.4101 30.5 24 30.5C27.5899 30.5 30.5 27.5899 30.5 24C30.5 20.4101 27.5899 17.5 24 17.5ZM39.3896 20.8896C37.6718 20.8896 36.2793 22.2822 36.2793 24C36.2793 25.7178 37.6718 27.1104 39.3896 27.1104C41.1074 27.1104 42.5 25.7178 42.5 24C42.5 22.2822 41.1074 20.8896 39.3896 20.8896ZM7.29004 22.21C6.30143 22.21 5.5 23.0114 5.5 24C5.5 24.9886 6.30143 25.79 7.29004 25.79C8.27865 25.79 9.08008 24.9886 9.08008 24C9.08008 23.0114 8.27865 22.21 7.29004 22.21ZM12.6104 8.2793C10.8926 8.2793 9.5 9.67185 9.5 11.3896C9.5 13.1074 10.8926 14.5 12.6104 14.5C14.3282 14.5 15.7207 13.1074 15.7207 11.3896C15.7207 9.67185 14.3282 8.2793 12.6104 8.2793ZM35.4199 10.9199C34.4313 10.9199 33.6299 11.7213 33.6299 12.71C33.6299 13.6986 34.4313 14.5 35.4199 14.5C36.4085 14.5 37.21 13.6986 37.21 12.71C37.21 11.7213 36.4085 10.9199 35.4199 10.9199ZM24 5.5C23.0114 5.5 22.21 6.30143 22.21 7.29004C22.21 8.27865 23.0114 9.08008 24 9.08008C24.9886 9.08008 25.79 8.27865 25.79 7.29004C25.79 6.30143 24.9886 5.5 24 5.5Z" fill="white"/>
</g>
<defs>
<clipPath id="clip0_898_200">
<rect width="48" height="48" fill="white"/>
</clipPath>
</defs>
</svg>
