<svg width="48" height="48" viewBox="0 0 48 48" fill="none" xmlns="http://www.w3.org/2000/svg">
<g clip-path="url(#clip0_904_608)">
<path d="M24.8828 7C25.3548 7.00012 25.8064 7.20217 26.1299 7.55859L33.4033 15.5732C33.702 15.9026 33.868 16.3379 33.8682 16.79V18.418C33.8681 18.8382 33.5399 19.1785 33.1348 19.1787C32.7294 19.1787 32.4004 18.8383 32.4004 18.418V16.79C32.4003 16.7256 32.3756 16.6641 32.333 16.6172L32.332 16.6162C32.2752 16.6309 32.2165 16.6416 32.1553 16.6416H26.2842C25.3384 16.6416 24.5713 15.8462 24.5713 14.8652V8.52246H6.71289C6.57778 8.52246 6.46777 8.63624 6.46777 8.77637V39.2236C6.46777 39.3638 6.57778 39.4775 6.71289 39.4775H32.1553C32.2904 39.4775 32.4004 39.3638 32.4004 39.2236V33.1348C32.4004 32.7144 32.7294 32.373 33.1348 32.373C33.5399 32.3733 33.8682 32.7145 33.8682 33.1348V39.2236C33.8682 40.2046 33.1011 41 32.1553 41H6.71289C5.76709 41 5 40.2046 5 39.2236V8.77637C5 7.79544 5.76709 7 6.71289 7H24.8828ZM36.7061 16.5557C38.1459 15.0623 40.481 15.0615 41.9209 16.5547L42.0518 16.6973C43.3593 18.1983 43.3146 20.5162 41.9199 21.9629L41.2676 22.6377L41.2686 22.6387L28.2334 36.1582L22.7158 37.7197C21.9855 37.9263 21.3148 37.2311 21.5137 36.4736L23.0186 30.751L31.7637 21.6816L36.7061 16.5557ZM23.1553 36.0176L27.0371 34.9189L24.2139 31.9912L23.1553 36.0176ZM25.0947 30.751L26.1445 31.8398L34.8828 22.7764C35.1693 22.4793 35.6342 22.4796 35.9209 22.7764C36.2075 23.0736 36.2075 23.5563 35.9209 23.8535L27.1826 32.916L28.2324 34.0059L39.1924 22.6377L36.0547 19.3838L25.0947 30.751ZM18.4551 29.3281C18.8604 29.3281 19.1895 29.6694 19.1895 30.0898C19.1893 30.5101 18.8603 30.8506 18.4551 30.8506H10.627C10.2217 30.8506 9.89273 30.5101 9.89258 30.0898C9.89258 29.6694 10.2216 29.3281 10.627 29.3281H18.4551ZM21.3906 25.2686C21.796 25.2686 22.125 25.6099 22.125 26.0303C22.1248 26.4505 21.7958 26.791 21.3906 26.791H10.627C10.2217 26.791 9.8928 26.4505 9.89258 26.0303C9.89258 25.6099 10.2216 25.2686 10.627 25.2686H21.3906ZM25.3057 21.209C25.7107 21.2092 26.0388 21.5497 26.0391 21.9697C26.0391 22.39 25.7108 22.7312 25.3057 22.7314H10.627C10.2216 22.7314 9.89258 22.3901 9.89258 21.9697C9.8928 21.5495 10.2217 21.209 10.627 21.209H25.3057ZM40.8828 17.6309C40.0162 16.7323 38.6108 16.7333 37.7441 17.6318L37.0918 18.3076L40.2305 21.5615L40.8818 20.8867C41.7485 19.9879 41.7495 18.5297 40.8828 17.6309ZM26.0391 14.8652C26.0391 15.0054 26.1491 15.1191 26.2842 15.1191H30.9736L26.0391 9.68066V14.8652Z" fill="#4D4D53"/>
</g>
<defs>
<clipPath id="clip0_904_608">
<rect width="48" height="48" fill="white"/>
</clipPath>
</defs>
</svg>
