<svg width="48" height="48" viewBox="0 0 48 48" fill="none" xmlns="http://www.w3.org/2000/svg">
<g clip-path="url(#clip0_904_738)">
<path d="M13.4728 25C14.7118 25 15.8958 25.2241 16.9816 25.6309C17.0778 25.6669 17.174 25.7043 17.2687 25.7432C16.746 26.064 16.2524 26.4244 15.7921 26.8193C15.0598 26.6127 14.2814 26.5 13.4728 26.5C9.53624 26.5002 6.34725 29.1276 5.61245 32.5H12.2697C12.1507 32.9884 12.064 33.489 12.0158 34H4.95131C4.39778 33.9999 3.94207 33.5504 4.006 33.002C4.53154 28.5013 8.56976 25.0002 13.4728 25ZM23.4992 25C28.4023 25.0001 32.4404 28.5012 32.966 33.002C33.0299 33.5505 32.5743 34 32.0206 34H14.9767C14.4231 33.9999 13.9684 33.5504 14.0324 33.002C14.5579 28.5011 18.5959 25 23.4992 25ZM34.5275 25C39.4306 25.0001 43.4687 28.5012 43.9943 33.002C44.0582 33.5505 43.6026 34 43.049 34H34.9816C34.9333 33.489 34.8467 32.9884 34.7277 32.5H42.3869C41.652 29.1277 38.4641 26.5001 34.5275 26.5C33.4413 26.5 32.4122 26.701 31.4757 27.0615C31.0596 26.6809 30.6149 26.328 30.1427 26.0098C31.4552 25.3654 32.9462 25 34.5275 25ZM23.4992 26.5C19.5624 26.5 16.3737 29.1275 15.6388 32.5H31.3585C30.6237 29.1276 27.4357 26.5001 23.4992 26.5ZM13.4728 14C15.9645 14 17.9845 16.0147 17.9845 18.5C17.9845 20.9853 15.9645 23 13.4728 23C10.9811 23 8.96108 20.9853 8.96108 18.5C8.96108 16.0147 10.9811 14 13.4728 14ZM23.4992 14C25.9907 14.0002 28.0099 16.0149 28.0099 18.5C28.0099 20.9851 25.9907 22.9998 23.4992 23C21.0075 23 18.9874 20.9853 18.9874 18.5C18.9874 16.0147 21.0075 14 23.4992 14ZM34.5275 14C37.0191 14.0002 39.0392 16.0148 39.0392 18.5C39.0392 20.9852 37.0191 22.9998 34.5275 23C32.0358 23 30.0158 20.9853 30.0158 18.5C30.0158 16.0147 32.0358 14 34.5275 14ZM13.4728 15.5C11.8117 15.5 10.465 16.8432 10.465 18.5C10.465 20.1568 11.8117 21.5 13.4728 21.5C15.1339 21.5 16.4806 20.1569 16.4806 18.5C16.4806 16.8431 15.1339 15.5 13.4728 15.5ZM23.4992 15.5C21.838 15.5 20.4914 16.8431 20.4914 18.5C20.4914 20.1569 21.838 21.5 23.4992 21.5C25.1601 21.4998 26.506 20.1567 26.506 18.5C26.506 16.8433 25.1601 15.5002 23.4992 15.5ZM34.5275 15.5C32.8663 15.5 31.5197 16.8431 31.5197 18.5C31.5197 20.1569 32.8663 21.5 34.5275 21.5C36.1885 21.4998 37.5353 20.1568 37.5353 18.5C37.5353 16.8432 36.1885 15.5002 34.5275 15.5Z" fill="#4D4D53"/>
</g>
<defs>
<clipPath id="clip0_904_738">
<rect width="48" height="48" fill="white"/>
</clipPath>
</defs>
</svg>
