<svg width="48" height="48" viewBox="0 0 48 48" fill="none" xmlns="http://www.w3.org/2000/svg">
<g clip-path="url(#clip0_904_838)">
<path d="M34 4C34.9665 4 35.75 4.76907 35.75 5.71777V8.66211H39C39.5523 8.66211 40 9.10241 40 9.64453V43.0186L39.9951 43.1191C39.9472 43.5809 39.5729 43.9481 39.1025 43.9951L39 44H9L8.89746 43.9951C8.42707 43.9481 8.05282 43.5809 8.00488 43.1191L8 43.0186V9.64453C8 9.10241 8.44772 8.66211 9 8.66211H12.25V5.71777C12.25 4.76907 13.0335 4 14 4H34ZM9.5 42.5273H20.25V33.2021C20.2502 32.2536 21.0336 31.4844 22 31.4844H26C26.9664 31.4844 27.7498 32.2536 27.75 33.2021V42.5273H38.5V10.1348H9.5V42.5273ZM22 32.957C21.862 32.957 21.7502 33.0668 21.75 33.2021V42.5273H26.25V33.2021C26.2498 33.0668 26.138 32.957 26 32.957H22ZM18 22.4053C18.5523 22.4053 19 22.8446 19 23.3867V26.3311C19 26.8392 18.6066 27.2572 18.1025 27.3076L18 27.3125H15L14.8975 27.3076C14.4271 27.2606 14.0528 26.8934 14.0049 26.4316L14 26.3311V23.3867C14 22.8446 14.4477 22.4053 15 22.4053H18ZM26 22.4053C26.5523 22.4053 27 22.8446 27 23.3867V26.3311C27 26.8392 26.6066 27.2572 26.1025 27.3076L26 27.3125H23L22.8975 27.3076C22.4271 27.2606 22.0528 26.8934 22.0049 26.4316L22 26.3311V23.3867C22 22.8446 22.4477 22.4053 23 22.4053H26ZM34 22.4053C34.5523 22.4053 35 22.8446 35 23.3867V26.3311C35 26.8392 34.6066 27.2572 34.1025 27.3076L34 27.3125H31L30.8975 27.3076C30.4271 27.2606 30.0528 26.8934 30.0049 26.4316L30 26.3311V23.3867C30 22.8446 30.4477 22.4053 31 22.4053H34ZM15.5 25.8408H17.5V23.877H15.5V25.8408ZM23.5 25.8408H25.5V23.877H23.5V25.8408ZM31.5 25.8408H33.5V23.877H31.5V25.8408ZM18 14.5518C18.5523 14.5518 19 14.9921 19 15.5342V18.4785C19 18.9867 18.6067 19.4047 18.1025 19.4551L18 19.46H15L14.8975 19.4551C14.427 19.408 14.0528 19.0409 14.0049 18.5791L14 18.4785V15.5342C14 14.9921 14.4477 14.5518 15 14.5518H18ZM26 14.5518C26.5523 14.5518 27 14.9921 27 15.5342V18.4785C27 18.9867 26.6067 19.4047 26.1025 19.4551L26 19.46H23L22.8975 19.4551C22.427 19.408 22.0528 19.0409 22.0049 18.5791L22 18.4785V15.5342C22 14.9921 22.4477 14.5518 23 14.5518H26ZM34 14.5518C34.5523 14.5518 35 14.9921 35 15.5342V18.4785C35 18.9867 34.6067 19.4047 34.1025 19.4551L34 19.46H31L30.8975 19.4551C30.427 19.408 30.0528 19.0409 30.0049 18.5791L30 18.4785V15.5342C30 14.9921 30.4477 14.5518 31 14.5518H34ZM15.5 17.9873H17.5V16.0244H15.5V17.9873ZM23.5 17.9873H25.5V16.0244H23.5V17.9873ZM31.5 17.9873H33.5V16.0244H31.5V17.9873ZM14 5.47266C13.8619 5.47266 13.75 5.58225 13.75 5.71777V8.66211H34.25V5.71777C34.25 5.58225 34.1381 5.47266 34 5.47266H14Z" fill="white"/>
</g>
<defs>
<clipPath id="clip0_904_838">
<rect width="48" height="48" fill="white"/>
</clipPath>
</defs>
</svg>
