<svg width="48" height="48" viewBox="0 0 48 48" fill="none" xmlns="http://www.w3.org/2000/svg">
<g clip-path="url(#clip0_908_1042)">
<path d="M36.4102 5.01416C37.8646 5.14762 39 6.2568 39 7.60498C38.9998 8.61018 38.3683 9.48156 37.4443 9.91553C37.4118 10.0348 37.3723 10.1828 37.3232 10.354C37.1856 10.8347 36.9836 11.5045 36.7266 12.2603C36.2175 13.7573 35.4727 15.6492 34.5566 17.0815C33.6261 18.5365 32.5409 19.5115 31.5762 20.3022C30.5751 21.1228 29.8346 21.656 29.335 22.3325C28.7812 23.0825 28.5251 23.5552 28.4092 23.8169C28.3777 23.888 28.3569 23.9423 28.3438 23.981C28.3569 24.0198 28.377 24.0754 28.4092 24.1479C28.5252 24.4097 28.781 24.8822 29.335 25.6323C29.8346 26.3089 30.575 26.842 31.5762 27.6626C32.5408 28.4532 33.6261 29.4276 34.5566 30.8823C35.4727 32.3146 36.2175 34.2076 36.7266 35.7046C36.9835 36.4602 37.1856 37.1302 37.3232 37.6108C37.3781 37.8023 37.422 37.9645 37.4561 38.0903C38.3738 38.5262 39 39.3949 39 40.396C39 41.7442 37.8646 42.8534 36.4102 42.9868L36.1152 42.9995H11.8848C10.2916 42.9995 9.00001 41.8341 9 40.396C9 39.3955 9.62524 38.5274 10.542 38.0913C10.5761 37.9653 10.6217 37.803 10.6768 37.6108C10.8144 37.1302 11.0165 36.4602 11.2734 35.7046C11.7825 34.2076 12.5273 32.3146 13.4434 30.8823C14.3739 29.4276 15.4592 28.4532 16.4238 27.6626C17.425 26.842 18.1654 26.3089 18.665 25.6323C19.219 24.8822 19.4748 24.4097 19.5908 24.1479C19.623 24.0754 19.6431 24.0198 19.6562 23.981C19.6431 23.9423 19.6223 23.888 19.5908 23.8169C19.4749 23.5552 19.2189 23.0825 18.665 22.3325C18.1654 21.656 17.4249 21.1228 16.4238 20.3022C15.4591 19.5115 14.3739 18.5365 13.4434 17.0815C12.5273 15.6492 11.7825 13.7573 11.2734 12.2603C11.0164 11.5045 10.8144 10.8347 10.6768 10.354C10.6273 10.1813 10.5863 10.0324 10.5537 9.9126C9.63115 9.47827 9.00016 8.60922 9 7.60498C9 6.16683 10.2916 5.00049 11.8848 5.00049H36.1152L36.4102 5.01416ZM11.8848 39.354C11.2475 39.354 10.7305 39.8207 10.7305 40.396C10.7305 40.9712 11.2475 41.438 11.8848 41.438H36.1152C36.7525 41.438 37.2695 40.9712 37.2695 40.396C37.2695 39.8207 36.7525 39.354 36.1152 39.354H11.8848ZM12.4268 10.2085C12.5543 10.6432 12.7212 11.1939 12.9277 11.8013C13.4282 13.2732 14.1268 15.0266 14.9414 16.3003C15.7414 17.5511 16.6759 18.399 17.5859 19.145C18.4595 19.8611 19.4503 20.5797 20.1045 21.4653C20.7042 22.2774 21.0248 22.8475 21.1973 23.2368C21.2838 23.4321 21.3355 23.5861 21.3652 23.7065C21.3801 23.7669 21.3896 23.8203 21.3955 23.8657C21.3984 23.8881 21.4001 23.9091 21.4014 23.9282C21.402 23.9378 21.404 23.9477 21.4043 23.9565V23.98C21.4043 23.9807 21.4035 23.9819 20.5381 23.9819C21.3818 23.9819 21.4038 23.9831 21.4043 23.9839V24.0073C21.404 24.0161 21.402 24.0261 21.4014 24.0356C21.4001 24.0549 21.3985 24.0765 21.3955 24.0991C21.3896 24.1446 21.3801 24.1979 21.3652 24.2583C21.3355 24.3787 21.2837 24.533 21.1973 24.728C21.0247 25.1173 20.704 25.6867 20.1045 26.4985C19.4503 27.3843 18.4596 28.1027 17.5859 28.8188C16.6758 29.5649 15.7415 30.4127 14.9414 31.6636C14.1268 32.9372 13.4283 34.6907 12.9277 36.1626C12.7168 36.7829 12.5475 37.3448 12.4189 37.7837H16.0879L23.4502 30.7378C23.6106 30.5843 23.8336 30.4958 24.0674 30.4927C24.301 30.4897 24.5262 30.5721 24.6914 30.7212L32.5156 37.7837H35.5811C35.4525 37.3448 35.2832 36.7829 35.0723 36.1626C34.5717 34.6907 33.8732 32.9372 33.0586 31.6636C32.2585 30.4127 31.3242 29.5649 30.4141 28.8188C29.5404 28.1027 28.5497 27.3843 27.8955 26.4985C27.296 25.6867 26.9753 25.1173 26.8027 24.728C26.7163 24.533 26.6645 24.3787 26.6348 24.2583C26.6199 24.1979 26.6104 24.1446 26.6045 24.0991C26.6015 24.0765 26.5999 24.0549 26.5986 24.0356C26.598 24.0261 26.596 24.0161 26.5957 24.0073V23.9839C26.5962 23.9831 26.6174 23.9819 27.4619 23.9819C26.5965 23.9819 26.5957 23.9807 26.5957 23.98V23.9565C26.596 23.9477 26.598 23.9378 26.5986 23.9282C26.5999 23.9091 26.6016 23.8881 26.6045 23.8657C26.6104 23.8203 26.6199 23.7669 26.6348 23.7065C26.6645 23.5861 26.7162 23.4321 26.8027 23.2368C26.9752 22.8475 27.2958 22.2774 27.8955 21.4653C28.5497 20.5797 29.5405 19.8611 30.4141 19.145C31.3241 18.399 32.2586 17.5511 33.0586 16.3003C33.8732 15.0266 34.5717 13.2732 35.0723 11.8013C35.2788 11.1939 35.4457 10.6432 35.5732 10.2085H12.4268ZM18.4658 37.7837H30.0674L24.0967 32.3931L18.4658 37.7837ZM30.7324 13.729C31.916 13.7293 32.632 14.975 31.8369 15.8374C30.8939 16.86 29.5969 18.1612 28.2266 19.3208C27.057 20.3104 25.7717 21.2506 24.5723 21.8003V25.1792C24.572 25.6104 24.1848 25.9604 23.707 25.9604C23.2294 25.9604 22.8421 25.6104 22.8418 25.1792V21.686C21.0488 20.4572 17.7929 17.986 15.959 15.7358C15.2298 14.841 16.0238 13.7293 17.1074 13.729H30.7324ZM17.7666 15.2905C19.4845 17.2079 22.197 19.2773 23.8164 20.3931C24.7654 19.9534 25.8962 19.1515 27.043 18.1812C28.1544 17.2407 29.2227 16.1914 30.0791 15.2905H17.7666ZM11.8848 6.56299C11.2475 6.56299 10.7305 7.02972 10.7305 7.60498C10.7307 8.09882 11.112 8.51167 11.623 8.61865H36.377C36.888 8.51167 37.2693 8.09882 37.2695 7.60498C37.2695 7.02972 36.7525 6.56299 36.1152 6.56299H11.8848Z" fill="#4D4D53"/>
</g>
<defs>
<clipPath id="clip0_908_1042">
<rect width="48" height="48" fill="white"/>
</clipPath>
</defs>
</svg>
