<svg width="48" height="48" viewBox="0 0 48 48" fill="none" xmlns="http://www.w3.org/2000/svg">
<g clip-path="url(#clip0_908_1003)">
<path d="M23.7012 5.01074C24.6817 5.1159 25.4471 5.99033 25.4473 7.05371V8.08105H34.1973L34.2969 8.08594C34.787 8.13866 35.1699 8.57673 35.1699 9.1084V22.5752C34.701 22.3987 34.2134 22.2608 33.7109 22.1641V9.62207H29.3359C29.3359 9.78595 29.3369 9.95774 29.3369 10.1348V12.1895L29.3311 12.2949C29.2843 12.7781 28.9204 13.1621 28.4629 13.2109L28.3643 13.2158H13.7793L13.6797 13.2109C13.2224 13.1618 12.8593 12.7779 12.8125 12.2949L12.8076 12.1895V10.1348C12.8076 9.95773 12.8067 9.78594 12.8066 9.62207H7.45801V41.459H33.7109V39.835C34.2135 39.7382 34.7009 39.6004 35.1699 39.4238V41.9727L35.165 42.0781C35.1185 42.5613 34.7543 42.9459 34.2969 42.9951L34.1973 43H6.97266C6.46931 43 6.05479 42.5959 6.00488 42.0781L6 41.9727V9.1084C6 8.54119 6.43566 8.08105 6.97266 8.08105H16.6963V7.05371C16.6965 5.99058 17.4612 5.11623 18.4414 5.01074L18.6416 5H23.5029L23.7012 5.01074ZM32 24C35.866 24 39 27.134 39 31C39 32.6628 38.4186 34.1888 37.4502 35.3896L42.5303 40.4697C42.8231 40.7626 42.8231 41.2374 42.5303 41.5303C42.2374 41.8231 41.7626 41.8231 41.4697 41.5303L36.3896 36.4502C35.1888 37.4186 33.6628 38 32 38C28.134 38 25 34.866 25 31C25 27.134 28.134 24 32 24ZM32 25.5C28.9624 25.5 26.5 27.9624 26.5 31C26.5 34.0376 28.9624 36.5 32 36.5C35.0376 36.5 37.5 34.0376 37.5 31C37.5 27.9624 35.0376 25.5 32 25.5ZM34.4697 28.4697C34.7626 28.1768 35.2374 28.1768 35.5303 28.4697C35.8231 28.7626 35.8231 29.2374 35.5303 29.5303L31.5303 33.5303C31.2374 33.8231 30.7626 33.8231 30.4697 33.5303L28.4697 31.5303C28.1768 31.2374 28.1768 30.7626 28.4697 30.4697C28.7626 30.1768 29.2374 30.1768 29.5303 30.4697L31 31.9395L34.4697 28.4697ZM19.6123 30.9326C20.015 30.9326 20.3418 31.2777 20.3418 31.7031C20.3416 32.1283 20.0149 32.4726 19.6123 32.4727H11.834C11.4314 32.4727 11.1047 32.1283 11.1045 31.7031C11.1045 31.2777 11.4312 30.9326 11.834 30.9326H19.6123ZM22.5293 26.8242C22.932 26.8243 23.2588 27.1694 23.2588 27.5947C23.2587 28.02 22.932 28.3652 22.5293 28.3652H11.834C11.4313 28.3652 11.1046 28.0201 11.1045 27.5947C11.1045 27.1693 11.4312 26.8242 11.834 26.8242H22.5293ZM26.4189 22.7158C26.8017 22.7161 27.1118 23.0285 27.1416 23.4248C26.7535 23.6742 26.3862 23.9525 26.042 24.2568H11.834C11.4312 24.2568 11.1045 23.9117 11.1045 23.4863C11.1046 23.061 11.4313 22.7158 11.834 22.7158H26.4189ZM18.6416 6.54102C18.3732 6.54102 18.1554 6.77026 18.1553 7.05371V8.08105C18.1553 8.93177 17.5016 9.6219 16.6963 9.62207H14.2637C14.2637 9.65108 14.2625 9.6813 14.2627 9.71289C14.2633 9.83117 14.2656 9.98916 14.2656 10.1348V11.6758H27.8779V10.1348C27.8779 9.98904 27.8793 9.83129 27.8799 9.71289L27.8789 9.62207L25.4463 9.62109C24.6413 9.62048 23.9893 8.93149 23.9893 8.08105V7.05371C23.9891 6.77043 23.7711 6.54129 23.5029 6.54102H18.6416Z" fill="#4D4D53"/>
</g>
<defs>
<clipPath id="clip0_908_1003">
<rect width="48" height="48" fill="white"/>
</clipPath>
</defs>
</svg>
