<svg width="48" height="48" viewBox="0 0 48 48" fill="none" xmlns="http://www.w3.org/2000/svg">
<g clip-path="url(#clip0_908_924)">
<path d="M22.7012 5.01074C23.6817 5.1159 24.4471 5.99033 24.4473 7.05371V8.08105H33.1973L33.2969 8.08594C33.7871 8.13866 34.1699 8.57673 34.1699 9.1084V18.5811L32.7109 20.1211V9.62207H28.3359C28.3359 9.78595 28.3369 9.95774 28.3369 10.1348V12.1895L28.3311 12.2949C28.2843 12.7781 27.9204 13.1621 27.4629 13.2109L27.3643 13.2158H12.7793L12.6797 13.2109C12.2224 13.1618 11.8593 12.7779 11.8125 12.2949L11.8076 12.1895V10.1348C11.8076 9.95773 11.8067 9.78594 11.8066 9.62207H6.45801V41.459H32.7109V35.4805L34.1699 33.9404V41.9727L34.165 42.0781C34.1185 42.5613 33.7543 42.9459 33.2969 42.9951L33.1973 43H5.97266C5.46931 43 5.05479 42.5959 5.00488 42.0781L5 41.9727V9.1084C5 8.54119 5.43566 8.08105 5.97266 8.08105H15.6963V7.05371C15.6965 5.99059 16.4612 5.11625 17.4414 5.01074L17.6416 5H22.5029L22.7012 5.01074ZM36.7461 18.0068C38.1767 16.4959 40.4971 16.4959 41.9277 18.0068L42.0576 18.1514C43.3568 19.6704 43.3127 22.0156 41.9268 23.4795L28.3271 37.8438L22.8447 39.4238C22.1191 39.6324 21.4535 38.9286 21.6514 38.1621L23.1465 32.3721L36.0986 18.6904L36.7461 18.0068ZM23.2812 37.7012L27.1396 36.5889L24.334 33.626L23.2812 37.7012ZM25.209 32.3721L26.2529 33.4746L34.9355 24.3027C35.2203 24.0021 35.682 24.0021 35.9668 24.3027C36.2515 24.6035 36.2516 25.0918 35.9668 25.3926L27.2842 34.5635L28.3262 35.665L38.708 24.7002L39.2158 24.1621L36.0986 20.8691L25.209 32.3721ZM18.6123 30.9326C19.0151 30.9326 19.3418 31.2777 19.3418 31.7031C19.3416 32.1283 19.0149 32.4727 18.6123 32.4727H10.834C10.4314 32.4727 10.1047 32.1283 10.1045 31.7031C10.1045 31.2777 10.4312 30.9326 10.834 30.9326H18.6123ZM21.5293 26.8242C21.932 26.8242 22.2588 27.1693 22.2588 27.5947C22.2587 28.0201 21.932 28.3652 21.5293 28.3652H10.834C10.4313 28.3652 10.1046 28.0201 10.1045 27.5947C10.1045 27.1693 10.4312 26.8242 10.834 26.8242H21.5293ZM25.4189 22.7158C25.8215 22.716 26.1474 23.0611 26.1475 23.4863C26.1475 23.9116 25.8215 24.2566 25.4189 24.2568H10.834C10.4312 24.2568 10.1045 23.9117 10.1045 23.4863C10.1046 23.061 10.4313 22.7158 10.834 22.7158H25.4189ZM40.8965 19.0957C40.0354 18.1863 38.6384 18.1872 37.7773 19.0967L37.1299 19.7793L40.2471 23.0732L40.8955 22.3896C41.7564 21.4801 41.7575 20.0052 40.8965 19.0957ZM17.6416 6.54102C17.3732 6.54102 17.1554 6.77026 17.1553 7.05371V8.08105C17.1553 8.93177 16.5017 9.6219 15.6963 9.62207H13.2637C13.2637 9.65108 13.2625 9.6813 13.2627 9.71289C13.2633 9.83117 13.2656 9.98916 13.2656 10.1348V11.6758H26.8779V10.1348C26.8779 9.98904 26.8793 9.83129 26.8799 9.71289L26.8789 9.62207L24.4463 9.62109C23.6413 9.62041 22.9893 8.93145 22.9893 8.08105V7.05371C22.9891 6.7704 22.7711 6.54123 22.5029 6.54102H17.6416Z" fill="#4D4D53"/>
</g>
<defs>
<clipPath id="clip0_908_924">
<rect width="48" height="48" fill="white"/>
</clipPath>
</defs>
</svg>
